grf
version=1
nRows=21
nColumns=28
inDegrees=no
endheader
time	ground_force_1_vx	ground_force_1_vy	ground_force_1_vz	ground_force_1_px	ground_force_1_py	ground_force_1_pz	ground_moment_1_mx	ground_moment_1_my	ground_moment_1_mz	ground_force_2_vx	ground_force_2_vy	ground_force_2_vz	ground_force_2_px	ground_force_2_py	ground_force_2_pz	ground_moment_2_mx	ground_moment_2_my	ground_moment_2_mz	ground_force_3_vx	ground_force_3_vy	ground_force_3_vz	ground_force_3_px	ground_force_3_py	ground_force_3_pz	ground_moment_3_mx	ground_moment_3_my	ground_moment_3_mz
      0.30000000	      0.48484484	      0.40756917	      1.58450845	    270.66077507	  -1254.90444328	      2.03962762	      0.05555337	      0.20088170	    110.07235306	      0.46655834	      0.19383612	      2.10094515	     44.08319635	  -1514.29206321	      0.31728226	     -0.01408534	     -0.18216482	    218.28326013	      0.01369808	    -44.42410641	    -47.83996078	    461.92992997	   -503.83325646	      0.83576384	      0.01215398	     -0.08928227	    -43.47511979
      0.31000000	      0.58723547	      0.50795148	      2.04784412	    319.43056930	  -1272.07831339	      2.04635583	      0.04314349	      0.15600740	     85.48365769	      0.60451150	      0.16595585	      1.89372661	     52.37757584	  -1480.02123535	      0.34641766	     -0.01780705	     -0.23029745	    275.95931428	     -2.42099967	    -16.45858858	    -14.82387250	    480.31892300	   -537.32214108	      0.90967883	     -0.09303185	      0.68340521	    332.77743258
      0.32000000	      0.86545940	      0.18895076	      2.14975698	    297.39811783	  -1213.68457893	      1.95090719	      0.03798688	      0.13736106	     75.26646597	      0.32733812	      0.29992943	      2.01416460	     45.92482254	  -1550.52486873	      0.28716359	     -0.01145465	     -0.14814224	    177.51490740	      0.66375127	     -1.75407216	      3.18476198	    408.60029353	   -218.36811634	      0.23461214	     -0.06070231	      0.44591472	    217.13377916
      0.33000000	      0.62068806	      0.20546754	      1.20710614	    226.86763812	  -1172.67807456	      1.91166709	      0.08006945	      0.28953215	    158.64803027	      0.42953417	      0.30782896	      2.36810375	     72.52112204	  -1582.79063271	      0.26195291	     -0.01184098	     -0.15313864	    183.50195620	      1.55930563	     -0.70604318	      4.97596622	    456.45748075	   -297.95911198	      0.41144247	     -0.10865767	      0.79819130	    388.67139031
      0.34000000	      0.59011109	      0.34866808	      1.72761839	    273.18384992	  -1208.71395082	      1.95405672	      0.06783778	      0.24530229	    134.41244865	      0.44310752	      0.21999982	      2.01909995	     89.84132434	  -1543.75975345	      0.29564314	     -0.01250784	     -0.16176308	    193.83640329	      1.71808716	     -0.70223892	      4.71215302	    459.21649595	   -318.66125046	      0.45472854	     -0.10413593	      0.76497497	    372.49702172
      0.35000000	      0.48463049	      0.48803089	      1.50521848	    267.36340368	  -1249.69810099	      2.03179024	      0.07321145	      0.26473353	    145.05972180	      0.46713117	      0.11563572	      2.45017193	    190.83630873	  -1632.89975359	      0.22776976	     -0.01147863	     -0.14845247	    177.88665374	      1.66134434	     -0.93176479	      4.94670679	    504.93552526	   -288.27150880	      0.40510023	     -0.10433469	      0.76643500	    373.20797208
      0.36000000	      0.43154015	      0.23347046	      1.97540334	    310.26906944	  -1218.90021162	      1.95392976	      0.04311143	      0.15589150	     85.42015013	      0.19599138	      0.24096776	      3.16497943	    212.29396830	  -1644.87759460	      0.21915846	     -0.00926730	     -0.11985346	    143.61721390	      1.56759734	     -0.61504759	      5.10768678	    500.94102421	   -287.55935144	      0.40252100	     -0.13286428	      0.97601127	    475.25906986
      0.37000000	      0.41518005	      0.31671571	      1.94385876	    291.47908549	  -1235.32280856	      1.99338422	      0.03036970	      0.10981723	     60.17392838	      0.44225147	      0.21403231	      2.40368024	    144.38793662	  -1636.55187449	      0.22172473	     -0.01193954	     -0.15441334	    185.02940433	      1.62365300	     -0.57282503	      4.53790046	    432.42739551	   -303.23938911	      0.41556837	     -0.12860292	      0.94470767	    460.01609009
      0.38000000	      0.56612877	      0.40551096	      2.48777222	    339.57177479	  -1252.10481046	      1.99973901	      0.04353748	      0.15743210	     86.26431544	      0.28700839	      0.36416308	      2.44003462	    149.34115407	  -1600.87033170	      0.25182181	     -0.00763660	     -0.09876368	    118.34588866	      1.68634753	     -0.64146602	      4.34632014	    463.66130664	   -289.73939836	      0.39657605	     -0.11303281	      0.83033075	    404.32137468
      0.39000000	      0.47421300	      0.41893858	      1.91626234	    312.71240499	  -1269.70169262	      2.04540915	      0.04486628	      0.16223706	     88.89717492	      0.47223592	      0.12641361	      2.27807815	     83.57945805	  -1578.30361526	      0.26641105	     -0.01185139	     -0.15327335	    183.66338430	      1.55426598	     -0.59108107	      5.23984964	    463.07171698	   -325.45662311	      0.46976156	     -0.10540928	      0.77432886	    377.05180932
      0.40000000	      0.56586479	      0.40846824	      1.98133538	    252.46500336	  -1252.37562316	      2.04419591	      0.03340214	      0.12078258	     66.18235234	      0.58219862	      0.50629488	      1.92798138	      5.64589969	  -1491.63524162	      0.33370988	     -0.02653021	     -0.34311362	    411.14392798	      1.69951864	     -0.65524746	      4.47532042	    473.46126181	   -311.75496675	      0.44452781	     -0.10799766	      0.79334290	    386.31050966
      0.41000000	      0.63298371	      0.46179983	      1.75366872	    257.14562726	  -1257.31426982	      2.05084662	      0.05999296	      0.21693532	    118.86887291	      0.54211825	      0.14234395	      2.23265425	    116.24647649	  -1503.16253734	      0.33122677	     -0.01115582	     -0.14427754	    172.88393612	      1.59042626	     -0.91972983	      4.57049055	    451.77133175	   -318.98547689	      0.45331300	     -0.11469623	      0.84255012	    410.27147811
      0.42000000	      0.35563378	      0.42199349	      1.84444390	    312.74191857	  -1249.37677196	      2.00830134	      0.08527542	      0.30835701	    168.96304029	      0.41946817	      0.30083724	      2.02517176	     64.45122809	  -1547.23086564	      0.29110802	     -0.01944102	     -0.25142955	    301.28134833	      1.61787361	     -0.79680557	      4.35972202	    461.19883459	   -266.15566862	      0.34745513	     -0.14486817	      1.06419099	    518.19731472
      0.43000000	      0.62094114	      0.18031985	      1.59772497	    294.37517775	  -1309.21885330	      2.12678262	      0.01523892	      0.05510413	     30.19409445	      0.22177219	      0.09672296	      2.05368049	     98.17667252	  -1533.27161146	      0.30493372	     -0.00704155	     -0.09106799	    109.12435233	      1.56689122	     -0.79606385	      4.83832293	    439.05654313	   -272.50959814	      0.35431368	     -0.13153482	      0.96624521	    470.50358589
      0.44000000	      0.49907143	      0.14219859	      1.94363411	    298.07045402	  -1253.82344901	      2.02382118	      0.01664369	      0.06018379	     32.97747871	      0.31111522	      0.11746043	      2.23751994	    130.87088663	  -1564.49295561	      0.28098813	     -0.01307896	     -0.16914937	    202.68719950	      1.53422696	     -0.74824188	      4.61659588	    462.23528528	   -299.43305788	      0.41608468	     -0.10412652	      0.76490581	    372.46334921
      0.45000000	      0.52571579	      0.28734004	      1.97948103	    310.92813891	  -1297.43906020	      2.09693027	      0.05403900	      0.19540572	    107.07181208	      0.27137975	      0.23160841	      2.36692446	    163.85235042	  -1577.22670711	      0.27248960	     -0.00963921	     -0.12466336	    149.38078895	      1.38249542	     -0.41840778	      4.86826012	    480.62835371	   -330.98405510	      0.48602109	     -0.11090561	      0.81470453	    396.71234277
      0.46000000	     11.18199889	     26.21458970	    -59.60282051	    315.69001231	  -1512.94728698	      2.48782880	     -0.03453170	     -0.12486708	    -68.42043510	     11.62184905	     19.35768947	    -58.46075932	    348.60966937	  -1551.12698051	      0.30619269	      0.04209644	      0.54443066	   -652.37678886	      1.87506299	     -0.58741289	      5.01663819	    446.56416809	   -264.23621941	      0.33942198	     -0.12982594	      0.95369189	    464.39086698
      0.47000000	     62.51823276	     60.70329660	   -200.27739916	    319.63498141	  -1491.75840353	      2.44716813	      0.11301910	      0.40867851	    223.93381828	    124.66775521	    162.13978131	   -908.23708755	    334.08426686	  -1583.69758278	      0.27807412	      0.15352256	      1.98549778	  -2379.16921888	      2.24023951	     -0.25289276	      5.22879926	    500.76662391	   -296.65429412	      0.42114999	     -0.17837632	      1.31033943	    638.05687336
      0.48000000	     23.68385755	     48.22986769	   -314.00434369	    349.78494859	  -1484.03154705	      2.41784999	     -0.28343952	     -1.02492096	   -561.60150083	     53.84241139	    109.84867047	  -1468.62406619	    347.02110144	  -1575.42628086	      0.28581159	      0.17571588	      2.27252256	  -2723.10337592	      2.45477812	     -0.20018549	      4.33373340	    505.82130360	   -296.20774574	      0.42164603	     -0.17985297	      1.32118676	    643.33887616
      0.49000000	    -42.09566152	     30.16818687	   -240.88003547	    380.64654339	  -1487.04184851	      2.40776798	     -0.12031331	     -0.43505447	   -238.38642299	    -31.49675388	    116.45634874	  -1746.82444321	    357.26684385	  -1586.86828105	      0.27692399	     -0.03458101	     -0.44723401	    535.90863281	      1.67832702	     -0.94092315	      5.05633474	    535.70827147	   -301.07539501	      0.43999769	     -0.14125551	      1.03765263	    505.27472447
      0.50000000	    -37.97153125	     39.31624333	   -123.29990432	    398.97175483	  -1497.84777725	      2.41824006	     -0.07985940	     -0.28877263	   -158.23185348	     47.32466630	    356.49893580	  -2117.12567542	    358.31100777	  -1603.56430801	      0.26305796	     -0.42873281	     -5.54477481	   6644.15628229	      1.46314369	     -1.01727336	      3.31447146	    542.20660159	   -199.87605064	      0.23398730	     -0.18856840	      1.38520972	    674.51422630
